<svg clip-rule="evenodd" fill-rule="evenodd" stroke-linejoin="round" stroke-miterlimit="2" viewBox="0 0 566 322" xmlns="http://www.w3.org/2000/svg" xmlns:xlink="http://www.w3.org/1999/xlink"><linearGradient id="a" gradientTransform="matrix(-900.335 203.003 -203.003 -900.335 4324.46 1378.48)" gradientUnits="userSpaceOnUse" x1="0" x2="1" y1="0" y2="0"><stop offset="0" stop-color="#fff"/><stop offset="1" stop-color="#a6a6a6"/></linearGradient><linearGradient id="b" gradientTransform="matrix(-1199.95 14.8192 -14.8192 -1199.95 1856.61 1512)" gradientUnits="userSpaceOnUse" x1="0" x2="1" y1="0" y2="0"><stop offset="0" stop-color="#fff"/><stop offset="1" stop-color="#b2b3b3"/></linearGradient><linearGradient id="c" gradientTransform="matrix(-824.501 -11.9346 11.9346 -824.501 1642.71 1652.03)" gradientUnits="userSpaceOnUse" x1="0" x2="1" y1="0" y2="0"><stop offset="0" stop-color="#e6e6e6"/><stop offset="1" stop-color="#9e9e9e"/></linearGradient><linearGradient id="d" gradientTransform="matrix(-2821.76 135.57 -135.57 -2821.76 2088.66 1573.48)" gradientUnits="userSpaceOnUse" x1="0" x2="1" y1="0" y2="0"><stop offset="0" stop-color="#eee"/><stop offset="1" stop-color="#a5a5a5"/></linearGradient><path d="m.411-.63h-.361v.638h.101v-.298h.26v-.1h-.261v-.139h.261zm-.345.016h.329v.069h-.261v.171h.261v.068h-.26v.298h-.069z" transform="matrix(57.23743377053 0 0 57.23743377053 26.90900494132 38.22286565383)"/><path d="m.169-.63h-.1v.638h.303v-.1h-.203zm-.084.016h.068v.538h.203v.068h-.271z" transform="matrix(57.23743377053 0 0 57.23743377053 51.97840470955 38.22286565383)"/><path d="m.304-.649h-.014l-.296.657h.105l.071-.159h.254s.073.159.073.159h.106zm-.007.022c.041.09.247.543.282.619h-.072s-.073-.159-.073-.159h-.274l-.071.159h-.071zm.007.173h-.014l-.105.232h.224zm-.007.022.088.194h-.176z" transform="matrix(57.23743377053 0 0 57.23743377053 74.00150105821 38.22286565383)"/><path d="m.415-.63h-.396v.101h.148v.537h.1v-.537h.148zm-.38.016h.364v.069h-.148v.537h-.068v-.537h-.148z" transform="matrix(57.23743377053 0 0 57.23743377053 105.72256635027 38.22286565383)"/><path d="m.213-.63h-.143v.638h.101v-.256h.007s.173.256.173.256h.101l.007-.012-.175-.257c.054-.014.094-.037.121-.067.028-.034.043-.072.043-.116 0-.054-.022-.099-.066-.134s-.1-.052-.169-.052zm-.127.016h.127c.065 0 .118.016.159.048.04.032.06.073.06.122 0 .04-.013.075-.039.105-.026.031-.068.053-.124.065l-.011.003.179.263h-.078s-.173-.256-.173-.256h-.031v.256h-.069zm.077.059h-.008v.233h.008c.131.002.196-.038.196-.117 0-.028-.008-.052-.024-.07s-.037-.03-.063-.036c-.024-.007-.061-.01-.109-.01zm.008.016c.042 0 .075.003.098.009.022.005.041.016.054.031.014.016.02.036.02.06 0 .07-.058.102-.172.101z" transform="matrix(57.23743377053 0 0 57.23743377053 146.58174693667 38.22286565383)"/><path d="m.031-.315c0 .095.034.176.103.243.068.067.151.101.248.101.098 0 .181-.033.249-.1.068-.066.102-.148.102-.244 0-.091-.034-.17-.103-.236s-.15-.099-.245-.099c-.097 0-.181.033-.25.098-.069.066-.104.145-.104.237zm.016 0c0-.088.033-.163.099-.225.066-.063.146-.094.239-.094.09 0 .169.031.234.094.066.064.098.138.098.225 0 .092-.032.17-.097.233-.064.063-.144.095-.238.095-.093 0-.172-.032-.237-.096-.066-.064-.098-.141-.098-.232zm.596.004c0-.071-.026-.131-.077-.179-.051-.049-.114-.073-.188-.073-.071 0-.132.025-.182.074-.051.049-.076.109-.076.178 0 .07.026.13.078.178.052.049.115.073.19.073.069 0 .129-.025.179-.074.05-.05.076-.109.076-.177zm-.016 0c0 .064-.024.119-.071.166-.047.046-.103.069-.168.069-.071 0-.13-.022-.179-.068s-.073-.101-.073-.167c0-.065.023-.121.071-.167.047-.046.104-.069.171-.069.07 0 .129.022.177.068s.072.102.072.168z" transform="matrix(57.23743377053 0 0 57.23743377053 175.20046382193 38.22286565383)"/><path d="m.031-.315c0 .095.034.176.103.243.068.067.151.101.248.101.098 0 .181-.033.249-.1.068-.066.102-.148.102-.244 0-.091-.034-.17-.103-.236s-.15-.099-.245-.099c-.097 0-.181.033-.25.098-.069.066-.104.145-.104.237zm.016 0c0-.088.033-.163.099-.225.066-.063.146-.094.239-.094.09 0 .169.031.234.094.066.064.098.138.098.225 0 .092-.032.17-.097.233-.064.063-.144.095-.238.095-.093 0-.172-.032-.237-.096-.066-.064-.098-.141-.098-.232zm.596.004c0-.071-.026-.131-.077-.179-.051-.049-.114-.073-.188-.073-.071 0-.132.025-.182.074-.051.049-.076.109-.076.178 0 .07.026.13.078.178.052.049.115.073.19.073.069 0 .129-.025.179-.074.05-.05.076-.109.076-.177zm-.016 0c0 .064-.024.119-.071.166-.047.046-.103.069-.168.069-.071 0-.13-.022-.179-.068s-.073-.101-.073-.167c0-.065.023-.121.071-.167.047-.046.104-.069.171-.069.07 0 .129.022.177.068s.072.102.072.168z" transform="matrix(57.23743377053 0 0 57.23743377053 219.33092274119 38.22286565383)"/><path d="m.411-.63h-.361v.638h.101v-.298h.26v-.1h-.261v-.139h.261zm-.345.016h.329v.069h-.261v.171h.261v.068h-.26v.298h-.069z" transform="matrix(57.23743377053 0 0 57.23743377053 263.46138166044 38.22286565383)"/><path d="m.176-.63h-.107v.638h.11c.083 0 .149-.017.199-.051s.076-.08.076-.136c0-.076-.044-.131-.131-.165.054-.035.081-.078.081-.129 0-.046-.022-.083-.065-.113-.042-.029-.097-.044-.163-.044zm-.091.016h.091c.063 0 .114.013.154.041.039.026.058.059.058.1 0 .05-.029.091-.087.124l.002.015c.089.03.135.081.135.155 0 .051-.023.092-.069.123-.047.032-.111.048-.19.048h-.094zm.105.317h-.037v.229h.015c.076 0 .127-.013.155-.037.029-.026.043-.052.043-.078 0-.035-.016-.063-.049-.084-.031-.02-.073-.03-.127-.03zm-.021.213v-.197h.021c.05 0 .09.009.119.027.027.018.041.041.041.071 0 .022-.013.044-.037.066-.026.022-.074.033-.144.033zm-.009-.471-.007.001v.199h.008c.049-.001.086-.01.112-.028.027-.019.041-.045.041-.078 0-.029-.012-.052-.037-.07-.024-.016-.055-.025-.095-.025-.008 0-.016.001-.022.001zm.009.015h.013c.036 0 .065.007.086.022.02.014.03.033.03.057 0 .028-.011.049-.034.065-.022.015-.054.024-.095.025z" transform="matrix(57.23743377053 0 0 57.23743377053 304.32056224684 38.22286565383)"/><path d="m.213-.63h-.143v.638h.101v-.256h.007s.173.256.173.256h.101l.007-.012-.175-.257c.054-.014.094-.037.121-.067.028-.034.043-.072.043-.116 0-.054-.022-.099-.066-.134s-.1-.052-.169-.052zm-.127.016h.127c.065 0 .118.016.159.048.04.032.06.073.06.122 0 .04-.013.075-.039.105-.026.031-.068.053-.124.065l-.011.003.179.263h-.078s-.173-.256-.173-.256h-.031v.256h-.069zm.077.059h-.008v.233h.008c.131.002.196-.038.196-.117 0-.028-.008-.052-.024-.07s-.037-.03-.063-.036c-.024-.007-.061-.01-.109-.01zm.008.016c.042 0 .075.003.098.009.022.005.041.016.054.031.014.016.02.036.02.06 0 .07-.058.102-.172.101z" transform="matrix(57.23743377053 0 0 57.23743377053 332.93927913211 38.22286565383)"/><path d="m.411-.63h-.361v.638h.361v-.1h-.261v-.198h.261v-.1h-.261v-.139h.261zm-.345.016h.329v.069h-.261v.171h.261v.068h-.261v.23h.261v.068h-.329z" transform="matrix(57.23743377053 0 0 57.23743377053 361.55799601737 38.22286565383)"/><path d="m.506-.649h-.014l-.192.446s-.184-.426-.184-.426h-.105l.281.651h.014l.193-.443s.193.443.193.443h.014l.281-.651h-.105l-.183.422s-.193-.442-.193-.442zm-.007.023.193.442h.014l.186-.429h.071s-.221.513-.264.612c0 0-.193-.443-.193-.443h-.014l-.193.443s-.228-.529-.264-.612h.071s.187.433.187.433h.014z" transform="matrix(57.23743377053 0 0 57.23743377053 386.6271970445 38.22286565383)"/><path d="m.156-.63h-.1v.638h.1zm-.084.016h.068v.606h-.068z" transform="matrix(57.23743377053 0 0 57.23743377053 443.86463081503 38.22286565383)"/><path d="m.066-.652-.014.005v.655h.101v-.431s.446.457.446.457l.014-.005v-.659h-.101v.437s-.446-.459-.446-.459zm.002.024.446.46.014-.006v-.44h.069v.624c-.076-.078-.446-.457-.446-.457l-.014.005v.434h-.069z" transform="matrix(57.23743377053 0 0 57.23743377053 456.41314320486 38.22286565383)"/><path d="m.603-.45.074-.073-.006-.006c-.048-.046-.096-.078-.143-.095-.046-.017-.098-.026-.154-.026-.095 0-.176.033-.243.099s-.101.145-.101.239c0 .089.033.168.098.237.066.069.153.104.263.104.048 0 .09-.006.124-.016.035-.011.068-.029.099-.054.03-.024.055-.053.073-.084s.03-.06.036-.086.009-.061.009-.104v-.008h-.281v.101h.165c-.032.098-.107.146-.223.146-.08 0-.143-.023-.189-.071-.045-.048-.068-.102-.068-.161 0-.068.023-.125.07-.17.047-.046.106-.068.177-.068.081 0 .153.03.215.091zm.052-.073s-.052.051-.052.051c-.064-.06-.137-.09-.22-.09-.075 0-.138.024-.188.072-.05.049-.075.109-.075.182 0 .063.024.121.073.172.048.05.115.076.2.076.128 0 .208-.056.241-.168l.003-.01h-.17v-.069h.249c0 .038-.003.069-.008.092-.006.025-.017.052-.035.082-.017.03-.04.057-.069.08-.029.024-.06.041-.093.051-.034.01-.074.015-.12.015-.105 0-.189-.033-.251-.099-.063-.066-.094-.141-.094-.226 0-.089.032-.165.096-.228s.141-.094.232-.094c.054 0 .104.008.149.024.043.016.087.045.132.087z" transform="matrix(57.23743377053 0 0 57.23743377053 494.59130649416 38.22286565383)"/><g fill-rule="nonzero"><path d="m.058-.622h.345v.085h-.261v.155h.261v.084h-.26v.298h-.085z" transform="matrix(57.23743377053 0 0 57.23743377053 25.71655840444 37.03041911695)"/><path d="m.077-.622h.084v.538h.203v.084h-.287z" transform="matrix(57.23743377053 0 0 57.23743377053 50.78595817266 37.03041911695)"/><path d="m.297-.646.294.646h-.089l-.073-.159h-.264l-.071.159h-.088zm0 .195-.1.221h.2z" transform="matrix(57.23743377053 0 0 57.23743377053 72.80905452132 37.03041911695)"/><path d="m.027-.622h.38v.085h-.148v.537h-.084v-.537h-.148z" transform="matrix(57.23743377053 0 0 57.23743377053 104.53011981338 37.03041911695)"/><path d="m.078-.622h.135c.067 0 .122.017.164.05s.063.076.063.128c0 .042-.014.079-.041.111-.027.031-.07.054-.128.067l.181.266h-.097l-.173-.256h-.019v.256h-.085zm.085.075v.217c.125.003.188-.034.188-.109 0-.026-.007-.048-.022-.065-.015-.016-.034-.028-.058-.034-.025-.006-.061-.009-.108-.009z" transform="matrix(57.23743377053 0 0 57.23743377053 145.38930039978 37.03041911695)"/><path d="m.039-.315c0-.09.034-.167.102-.231.067-.064.149-.096.244-.096.093 0 .172.032.24.097.067.064.1.141.1.23 0 .094-.033.174-.099.239-.067.065-.148.097-.244.097-.095 0-.176-.033-.243-.098-.067-.066-.1-.145-.1-.238zm.596.004c0-.069-.025-.127-.074-.174-.05-.047-.111-.07-.183-.07-.069 0-.128.024-.177.072-.049.047-.073.105-.073.172 0 .068.025.126.075.173.051.047.112.07.185.07.067 0 .125-.024.174-.072.048-.048.073-.105.073-.171z" transform="matrix(57.23743377053 0 0 57.23743377053 174.00801728504 37.03041911695)"/><path d="m.039-.315c0-.09.034-.167.102-.231.067-.064.149-.096.244-.096.093 0 .172.032.24.097.067.064.1.141.1.23 0 .094-.033.174-.099.239-.067.065-.148.097-.244.097-.095 0-.176-.033-.243-.098-.067-.066-.1-.145-.1-.238zm.596.004c0-.069-.025-.127-.074-.174-.05-.047-.111-.07-.183-.07-.069 0-.128.024-.177.072-.049.047-.073.105-.073.172 0 .068.025.126.075.173.051.047.112.07.185.07.067 0 .125-.024.174-.072.048-.048.073-.105.073-.171z" transform="matrix(57.23743377053 0 0 57.23743377053 218.1384762043 37.03041911695)"/><path d="m.058-.622h.345v.085h-.261v.155h.261v.084h-.26v.298h-.085z" transform="matrix(57.23743377053 0 0 57.23743377053 262.26893512356 37.03041911695)"/><path d="m.077-.622h.099c.065 0 .117.014.158.042s.062.064.062.107c0 .052-.03.096-.091.131.094.031.141.086.141.163 0 .054-.024.097-.073.13-.048.033-.113.049-.194.049h-.102zm.084.075v.184c.047 0 .083-.009.108-.027.025-.017.037-.041.037-.071 0-.026-.011-.047-.034-.063-.022-.016-.052-.024-.09-.024-.008 0-.015 0-.021.001zm0 .258v.213h.007c.073 0 .123-.012.15-.035.027-.024.04-.048.04-.072 0-.032-.015-.058-.045-.077s-.071-.029-.123-.029z" transform="matrix(57.23743377053 0 0 57.23743377053 303.12811570996 37.03041911695)"/><path d="m.078-.622h.135c.067 0 .122.017.164.05s.063.076.063.128c0 .042-.014.079-.041.111-.027.031-.07.054-.128.067l.181.266h-.097l-.173-.256h-.019v.256h-.085zm.085.075v.217c.125.003.188-.034.188-.109 0-.026-.007-.048-.022-.065-.015-.016-.034-.028-.058-.034-.025-.006-.061-.009-.108-.009z" transform="matrix(57.23743377053 0 0 57.23743377053 331.74683259522 37.03041911695)"/><path d="m.058-.622h.345v.085h-.261v.155h.261v.084h-.261v.214h.261v.084h-.345z" transform="matrix(57.23743377053 0 0 57.23743377053 360.36554948048 37.03041911695)"/><path d="m.499-.646.2.459.188-.434h.088l-.276.64-.2-.46-.2.46-.276-.64h.088l.189.438z" transform="matrix(57.23743377053 0 0 57.23743377053 385.43475050762 37.03041911695)"/><path d="m446.33538003946 1.42873531168h4.80794443672v35.60168380527h-4.80794443672z" stroke-width="57.23743377053"/><path d="m.06-.647.46.473v-.448h.085v.651l-.46-.471v.442h-.085z" transform="matrix(57.23743377053 0 0 57.23743377053 455.22069666798 37.03041911695)"/><path d="m.666-.523-.063.062c-.063-.062-.137-.093-.22-.093-.073 0-.134.023-.182.07-.049.047-.073.106-.073.176 0 .061.023.117.07.166.048.049.112.074.195.074.124 0 .202-.054.234-.162h-.168v-.085h.265c0 .043-.003.077-.008.102-.006.025-.018.053-.036.084s-.042.058-.071.082c-.03.025-.062.042-.096.052-.034.011-.075.016-.122.016-.107 0-.193-.034-.257-.101-.064-.068-.096-.145-.096-.232 0-.091.033-.169.098-.234.066-.064.145-.096.238-.096.055 0 .106.008.152.025.045.017.092.048.14.094z" transform="matrix(57.23743377053 0 0 57.23743377053 493.39885995728 37.03041911695)"/><path d="m.058-.622h.345v.085h-.261v.155h.261v.084h-.261v.214h.261v.084h-.345z" transform="matrix(18.02241436847 0 0 18.02241436847 248.0365843218 73.25169408846)"/><path d="m.445-.553-.069.055c-.018-.019-.035-.033-.05-.042-.014-.01-.036-.014-.064-.014-.03 0-.055.007-.074.021-.019.013-.029.031-.029.053 0 .019.008.036.025.05.017.015.045.03.085.047.04.018.071.033.094.048.022.015.04.031.054.049.015.018.025.037.032.057s.011.041.011.063c0 .052-.019.096-.056.132-.038.037-.084.055-.137.055-.052 0-.098-.014-.138-.043-.04-.028-.07-.071-.092-.128l.085-.024c.031.07.078.105.142.105.031 0 .057-.009.077-.028.021-.018.031-.042.031-.07 0-.017-.005-.034-.016-.051s-.024-.031-.04-.042-.042-.024-.076-.038c-.035-.014-.062-.027-.081-.039s-.035-.026-.049-.043c-.013-.016-.023-.032-.03-.049-.006-.016-.009-.033-.009-.052 0-.045.018-.083.054-.114.035-.031.079-.047.13-.047.034 0 .068.007.103.022s.064.037.087.067z" transform="matrix(18.02241436847 0 0 18.02241436847 255.92983861474 73.25169408846)"/><path d="m.027-.622h.38v.085h-.148v.537h-.084v-.537h-.148z" transform="matrix(18.02241436847 0 0 18.02241436847 264.94104579898 73.25169408846)"/><path d="m.042-.057c0-.018.006-.033.019-.047.013-.013.029-.019.047-.019s.033.006.046.019c.013.014.02.029.02.047s-.007.034-.019.047c-.013.012-.029.019-.047.019s-.034-.007-.047-.019c-.013-.013-.019-.029-.019-.047z" transform="matrix(18.02241436847 0 0 18.02241436847 271.39250694245 73.25169408846)"/><path d="m.241-.083h.237v.083h-.425l.317-.337c.024-.026.036-.055.036-.086 0-.037-.013-.069-.038-.096s-.054-.04-.088-.04c-.028 0-.054.009-.079.027s-.041.045-.048.083h-.082c.008-.061.032-.109.072-.143.041-.034.088-.051.142-.051.055 0 .102.021.142.064.041.043.061.094.061.152 0 .029-.005.055-.016.078-.01.024-.028.049-.054.077z" transform="matrix(18.02241436847 0 0 18.02241436847 275.34335809229 73.25169408846)"/><path d="m.279-.643c.068 0 .124.031.167.092.042.061.064.141.064.239 0 .102-.023.182-.069.243-.046.06-.102.09-.166.09-.067 0-.123-.031-.167-.093-.045-.061-.067-.14-.067-.235 0-.106.023-.188.069-.247.045-.06.1-.089.164-.089zm.142.33c0-.07-.014-.128-.042-.173-.027-.046-.062-.068-.104-.068-.043 0-.079.022-.106.067s-.041.104-.041.177.014.131.041.175c.028.044.064.066.108.066.042 0 .077-.022.104-.067.026-.046.04-.104.04-.177z" transform="matrix(18.02241436847 0 0 18.02241436847 285.28666201964 73.25169408846)"/><path d="m.241-.083h.237v.083h-.425l.317-.337c.024-.026.036-.055.036-.086 0-.037-.013-.069-.038-.096s-.054-.04-.088-.04c-.028 0-.054.009-.079.027s-.041.045-.048.083h-.082c.008-.061.032-.109.072-.143.041-.034.088-.051.142-.051.055 0 .102.021.142.064.041.043.061.094.061.152 0 .029-.005.055-.016.078-.01.024-.028.049-.054.077z" transform="matrix(18.02241436847 0 0 18.02241436847 295.229965947 73.25169408846)"/><path d="m.279-.643c.068 0 .124.031.167.092.042.061.064.141.064.239 0 .102-.023.182-.069.243-.046.06-.102.09-.166.09-.067 0-.123-.031-.167-.093-.045-.061-.067-.14-.067-.235 0-.106.023-.188.069-.247.045-.06.1-.089.164-.089zm.142.33c0-.07-.014-.128-.042-.173-.027-.046-.062-.068-.104-.068-.043 0-.079.022-.106.067s-.041.104-.041.177.014.131.041.175c.028.044.064.066.108.066.042 0 .077-.022.104-.067.026-.046.04-.104.04-.177z" transform="matrix(18.02241436847 0 0 18.02241436847 305.1760858766 73.25169408846)"/></g><path d="m48.44001835243 66.86817409687h188.43040175873v1.56031629352h-188.43040175873z" stroke-width=".19874108948"/><path d="m326.57817308109 66.86817409687h188.43040175873v1.56031629352h-188.43040175873z" stroke-width=".19874108948"/><g transform="matrix(.19443215212 0 0 .19443215212 -198.631148044 -54.25767931)"><path d="m3812.26 1228.09 1.95 87.35 12.59 16.7 18.73 379.01 56.48-60.84-7.17-280.55z" fill="url(#a)"/><path d="m1056.08 1198.37 28.16-5.84-2.09 704.78-26.07 1.15z" fill="#fff"/><path d="m1091.48 1177.28 30.01-8.76v840l-30.34 2.89z" fill="#fff" transform="translate(572.979 -145.299)"/><path d="m1694.47 1003.42-638.39 177.7v717.34l171.41-23.8 437.3-47.13v47.13h29.68z" fill="#fff"/><path d="m1664.4 1031.93 30.07-8.71v-19.8l-638.39 177.7v17.25l28.16-5.84v123.6l580.16-139.15z"/><path d="m1745.03 1402.73-691.28-399.31v871.24l691.28-105.55z" fill="url(#b)" transform="translate(640.723)"/><path d="m1694.47 1003.42v19.8l691.28 393.07v-13.56z"/><path d="m1084.24 1316.13 148.1 41.84 432.02-85.67.04-95.32z" fill="#444"/><path d="m1084.24 1316.13 148.1 41.84-4.9 524.54-145.29 14.8z" fill="#e6e6e6"/><path d="m1664.36 1272.3-432.02 85.67-4.9 524.54 437.35-25.99z" fill="url(#c)"/><path d="m2390.13 1228.09-1565.038 260.13v301.15l1598.298-78.22-18.73-379.01-12.59-16.7z" fill="url(#d)" transform="translate(1422.13)"/><path d="m2214.51 1485.09v43.78l1599.7-213.43-1.95-87.35z"/><path d="m2214.51 1486.14 32.72 10.5 1579.57-207.23-12.59-16.69z" fill="#fff" transform="translate(0 42.7238)"/><path d="m1697 970.391-675.4 185.029.99 775.54 673.65-22.07 552.91-88.3s1607.91-79.95 1607.91-79.95l73.14-76.75-7.62-300.77-94.87-166.39-1411.74 220.67v-35.52zm-656.86 199.159 654.33-179.265 702.98 402.335v46.42l1420.5-222.04 86.23 151.25 7.31 288.43-62.73 65.83-1601.53 79.63-552.76 88.28-653.39 21.4z"/><path d="m1083.39 1546.82-.07 23.93 581.18-103.95.29-27.54z" fill="#282828"/><path d="m1083.39 1546.82-.07 4.71 581.18-103.94.29-8.33z"/><g fill="#282828"><path d="m1083.39 1546.82-.07 16.98 581.21-101.5.26-23.04z" transform="translate(0 34.6568)"/><path d="m1083.39 1546.82-.07 16.98 581.21-101.5.26-23.04z" transform="translate(0 69.2155)"/><path d="m1083.39 1546.82-.07 16.98 581.21-101.5.26-23.04z" transform="translate(0 101.171)"/><path d="m1082.93 1546.89-.06 16.97 581.73-101.6-.02-22.97z" transform="translate(0 130.976)"/></g><path d="m1227.49 1568.37-144.62-4.51 581.73-101.6v39.77z" fill="#fff" transform="translate(0 130.976)"/></g></svg>